<svg id="Layer_1"
     style="enable-background:new 0 0 117.254 237.183;"
     version="1.1"
     viewBox="0 0 117.254 237.183"
     xml:space="preserve"
     xmlns="http://www.w3.org/2000/svg"
     xmlns:xlink="http://www.w3.org/1999/xlink">
    <g>
        <circle cx="65.168" cy="22.5" r="22.5"/>
        <path d="M21.31,163.147l16.812-11.388v73.06c0,6.83,5.537,12.363,12.363,12.363c6.828,0,12.365-5.533,12.365-12.363v-90.271h4.635   v90.271c0,6.83,5.537,12.363,12.363,12.363c6.828,0,12.365-5.533,12.365-12.363V75.067c1.422,2.988,2.85,7.06,4.025,12.538   c0.374,1.746,0.726,3.617,1.039,5.66c0.002,0.011,0.005,0.02,0.007,0.031c1.069,6.934,1.743,15.604,1.741,26.342   c0.002,5.513-0.174,11.57-0.566,18.222c-0.231,3.962,2.465,7.411,6.211,8.261v2.041v2.048h-4.084c-2.209,0-4,1.791-4,4v40.668   c0,2.209,1.791,4,4,4h12.666c2.209,0,4-1.791,4-4V154.21c0-2.209-1.791-4-4-4h-4.082v-2.262v-2.104   c2.912-1.058,5.069-3.758,5.262-7.046c0.408-6.936,0.594-13.305,0.594-19.159c0-11.421-0.713-20.895-1.934-28.814v0.002   c-0.001-0.002-0.002-0.004-0.002-0.006c-0.333-2.152-0.705-4.19-1.11-6.125c-2.788-13.298-7.214-21.619-12.306-26.894   c-5.813-6.081-12.357-7.264-15.197-7.186c-0.636,0-1.115,0.043-1.416,0.08c-0.006,0.001-0.01,0.002-0.016,0.003H47.286   c-0.005-0.001-0.011-0.002-0.017-0.003c-0.3-0.037-0.777-0.08-1.414-0.08c-2.842-0.078-9.383,1.104-15.197,7.188   c-5.092,5.274-9.518,13.595-12.306,26.894c-0.405,1.936-0.777,3.975-1.11,6.128c-0.002,0.008-0.002,0.015-0.003,0.023   c-1.22,7.914-1.931,17.38-1.931,28.791c0,5.854,0.185,12.224,0.594,19.159c0.248,4.25,3.774,7.531,7.98,7.531   c0.156,0,0.314-0.004,0.475-0.014c4.41-0.258,7.775-4.045,7.518-8.455c-0.393-6.651-0.568-12.709-0.566-18.222   c-0.002-10.751,0.675-19.429,1.744-26.367c0.001-0.002,0.002-0.004,0.002-0.006c0.314-2.043,0.665-3.918,1.039-5.663   c1.176-5.484,2.605-9.561,4.029-12.549v30.81l-4.57,3.095c-0.059,1.218-0.105,2.46-0.143,3.721l4.289-2.905l17.945,26.494   L22.111,158.98L4.168,132.485l9.225-6.248c-0.027-1.208-0.047-2.402-0.061-3.584L0,131.685L21.31,163.147z M65.168,123.382l-9.5-12   l5.471-40.321c1.298,0.486,2.662,0.74,4.027,0.739h0.002c0,0,0.004,0,0.006,0c1.363,0,2.725-0.254,4.02-0.74l5.475,40.322   L65.168,123.382z M61.367,58.882h3.801h3.799l1.9,7.5l-0.289,0.456c-1.566,1.306-3.484,1.96-5.412,1.962   c-1.928-0.002-3.844-0.655-5.408-1.957l-0.291-0.461L61.367,58.882z"/><rect height="19.211" transform="matrix(0.8197 -0.5728 0.5728 0.8197 -65.9798 46.0449)" width="2" x="39.155" y="118.23"/><path d="M39.474,139.888l-5.911-8.465c0.051,1.234,0.108,2.481,0.174,3.741l4.098,5.868L39.474,139.888z"/>
    </g>
</svg>