<?xml version="1.0" ?>
<svg id="Layer_1"
     style="enable-background:new 0 0 168.092 235.503;"
     version="1.1"
     viewBox="0 0 168.092 235.503"
     xml:space="preserve"
     xmlns="http://www.w3.org/2000/svg"
     xmlns:xlink="http://www.w3.org/1999/xlink">
    <g>
        <path d="M89.164,106.181c0,2.905-1.252,5.516-3.234,7.345c3.83-0.232,7.459-0.803,10.865-1.667l-6.355,9.382l20.475,13.868   c-0.336-0.973-0.525-1.999-0.547-3.057c-0.006-0.309,0.004-0.615,0.025-0.919L94.606,120.44l17.945-26.494l15.66,10.606   c0.473-0.91,0.916-1.817,1.33-2.723l-5.219-3.535c0.109-0.217,0.213-0.438,0.324-0.654c-0.041-0.962-0.051-1.924-0.07-2.886   c1.768-1.976,3.361-4.001,4.791-6.031c0.566,3.261,1.082,6.617,1.488,10.009c2.031-5.26,3.074-10.439,3.105-15.512   c0.002-6.226-1.654-10.488-2.367-12.033c-0.188-0.404-0.317-0.645-0.367-0.734c-2.818-4.586-1.375-10.734,3.256-13.635   c1.594-0.999,3.426-1.528,5.299-1.528c3.475,0,6.645,1.755,8.486,4.695c0.951,1.53,5.678,9.81,5.693,23.246   c0.037,8.269-1.848,19.553-9.072,32.617l1.193,0.809l-17.943,26.494l-3.408-2.309c-1.205,0.586-2.523,0.922-3.898,0.985   l4.109,2.783c-1.643,8.569-2.879,18.805-2.893,30.249c-0.004,15.705,2.359,33.7,9.32,52.482c1.867,5.042,6.645,8.161,11.725,8.162   c1.441,0,2.906-0.252,4.338-0.781c6.475-2.4,9.779-9.59,7.381-16.065c-5.789-15.626-7.764-30.577-7.766-43.797   c-0.004-14.127,2.279-26.243,4.543-34.71c0.391-1.464,0.779-2.81,1.156-4.047c6.313-1.6,12.033-5.879,14.146-16.753   c2.586-22.215,1.123-35.346-5.682-55.52c-5.035-14.643-17.41-19.279-25.947-17.15c-4.342,1.082-7.443,4.699-9.068,9.299   c-1.973,4.259-4.088,10.485-5.955,17.075c-0.969,1.839-2.08,3.726-3.348,5.585c-3.365,4.976-7.756,9.729-13.369,13.202   c-5.156,3.174-11.346,5.364-19.297,5.73C87.174,99.31,89.164,102.514,89.164,106.181z"/>
        <ellipse cx="119.229" cy="22.498" rx="22.495" ry="22.493" transform="matrix(0.9739 -0.2268 0.2268 0.9739 -1.9956 27.6278)"/>
        <rect height="1.999" transform="matrix(0.5726 -0.8199 0.8199 0.5726 -44.7718 138.136)" width="19.211" x="100.489" y="111.008"/>
        <rect height="2.002" transform="matrix(0.5727 -0.8198 0.8198 0.5727 -45.6778 145.8895)" width="19.212" x="107.489" y="115.757"/>
        <path d="M151.961,83.234c-0.016-13.295-4.871-21.353-5.389-22.188c-2.346-3.745-7.283-4.88-11.027-2.535   c-3.725,2.333-4.867,7.229-2.572,10.967c0.002,0.002,0.002,0.004,0.004,0.007c0.055,0.096,0.209,0.377,0.434,0.864   c0.852,1.848,2.553,6.351,2.551,12.884c-0.061,9.748-3.555,24.441-21.363,43.073c-3.063,3.186-2.961,8.25,0.227,11.312   c1.549,1.49,3.545,2.231,5.539,2.231c2.102,0,4.201-0.823,5.773-2.458C146.27,116.537,152.024,97.234,151.961,83.234z"/>
        <ellipse cx="48.863" cy="22.498" rx="22.493" ry="22.495" transform="matrix(0.2268 -0.9739 0.9739 0.2268 15.8689 64.9853)"/>
        <path d="M15.34,136.101c2.545,8.387,5.723,22.193,5.701,38.758c-0.004,13.217-1.98,28.171-7.764,43.799   c-2.398,6.474,0.906,13.666,7.381,16.063c1.432,0.53,2.898,0.781,4.34,0.781c5.08,0,9.857-3.12,11.723-8.163   c6.955-18.783,9.322-36.776,9.32-52.48c-0.033-25.046-5.912-44.31-9.09-52.935c-0.785-5.872-0.725-12.08-0.211-18.267   c-4.516-3.493-8.441-7.679-11.56-12.407c-7.121-10.861-8.565-21.286-8.856-25.262l-0.01-0.146   c-0.254-5.606,4.023-10.29,9.533-10.54c0.152-0.007,0.307-0.011,0.457-0.011c5.354,0,9.738,4.194,9.984,9.546   c0.004,0.039,0.016,0.178,0.037,0.373c0.047,0.43,0.139,1.124,0.303,2.016c0.313,1.664,0.941,4.263,2.148,7.168   c0.576,1.373,1.236,2.654,1.938,3.891c0.541-2.68,1.068-5.241,1.533-7.615c2.869-9.953-0.885-21.865-9.42-23.992   c-8.537-2.129-20.912,2.508-25.947,17.15c-6.805,20.174-8.268,33.305-5.682,55.52C3.311,130.22,9.028,134.5,15.34,136.101z"/>
        <path d="M34.664,67.592c-0.176-0.947-0.273-1.688-0.326-2.157c-0.025-0.232-0.039-0.396-0.045-0.485l-0.002-0.02   c-0.201-4.413-3.941-7.829-8.353-7.63c-4.414,0.2-7.83,3.94-7.629,8.354h-0.004c0.076,0.793,0.557,12.314,8.547,24.498   c3.998,6.063,9.992,12.218,18.537,16.718c8.523,4.508,19.457,7.315,33.1,7.315c0.021,0,0.041,0,0.063,0   c0.242,0,0.445-0.002,0.615-0.002c4.416,0,7.998-3.581,7.998-8c0-4.418-3.582-7.998-7.998-7.998c-0.246-0.002-0.451,0-0.615,0   c-11.529-0.009-19.709-2.313-25.693-5.464c-8.922-4.731-13.412-11.575-15.926-17.557C35.696,72.193,35.02,69.486,34.664,67.592z"/>
    </g>
</svg>