<svg xmlns="http://www.w3.org/2000/svg"><defs><style>.cls-1{fill-opacity:.2;stroke:#000;stroke-width:2px;fill-rule:evenodd}</style><style>.cls-1{fill-opacity:.2;stroke:#000;stroke-width:2px;fill-rule:evenodd}</style><style>.cls-1{fill-opacity:.2;stroke:#000;stroke-width:2px;fill-rule:evenodd}</style><style>.cls-1{fill-opacity:.2;stroke:#000;stroke-width:2px;fill-rule:evenodd}</style><style>.cls-1{stroke:#000;stroke-width:2px;fill-rule:evenodd}</style></defs><symbol id="shape-1" viewBox="0 0 187 171"><path id="shape-1" class="cls-1" d="M17 48c23.155-59.545 172-70.411 170 6s-28.321 133.418-99 112-112.328-11.719-71-118z"/></symbol><symbol id="shape-2" viewBox="0 0 187 167"><path id="shape-2" class="cls-1" d="M17 48c23.155-59.545 172-70.411 170 6s-12.321 113.418-99 112c-73.843-1.21-112.328-11.719-71-118z"/></symbol><symbol id="shape-3" viewBox="0 0 200 167"><path id="shape-3" class="cls-1" d="M17 49c23.155-59.545 128-71.411 170 6 36.449 67.186-12.321 113.419-99 112-73.843-1.21-112.328-11.719-71-118z"/></symbol><symbol id="shape-4" viewBox="0 0 188 170"><path id="shape-4" class="cls-1" d="M5 52c8.155-68.546 128-71.411 170 6 36.449 67.186-12.321 113.419-99 112-73.843-1.21-84.471-4.765-71-118z"/></symbol><symbol id="shape-5" viewBox="0 0 263 168"><path id="shape-5" class="cls-1" d="M233 0a30.1 30.1 0 0 1 30 30v108a30 30 0 0 1-30 30H30a30 30 0 0 1-30-30v-38C0 83.43 55.032-1.712 233 0z"/></symbol></svg>