<svg version="1" xmlns="http://www.w3.org/2000/svg" width="346.667" height="346.667" viewBox="0 0 260.000000 260.000000"><path d="M12.7 2.9C7.4 5.6 2.5 10.8 1.2 15.1.8 16.4.5 38.9.5 65v47.5l2.7 4c3 4.5 7.1 8.5 9 8.9.7.2 2.3.7 3.5 1.2 3.4 1.4 94.1 1 97.6-.4 1.5-.6 2.7-1.4 2.7-1.7 0-.2-1.5-2-3.2-3.8-1.8-1.9-6.6-7.1-10.7-11.6l-7.4-8.2-3.4 3.3-3.4 3.3-4.7-5.1C77.6 96.4 65 82.5 62 79c-1.2-1.4-5.4-6-9.3-10.4-4-4.3-8.1-8.8-9.2-10-4.1-4.6-17.1-18.9-19.3-21.3-10.7-11.6.1-28.9 15-24 3.1 1 5.6 3.3 15.3 14.1 3.9 4.3 9 9.9 11.3 12.5 2.4 2.5 5.6 6 7 7.7 4.9 5.6 16.6 18.6 21.5 23.7 2.6 2.7 4.7 5.1 4.7 5.3 0 .3 1.5 1.9 3.3 3.8 1.7 1.8 6.1 6.6 9.7 10.6 11.6 13.1 15 16.5 15.1 15 .4-6.2 0-86.1-.4-88.1-1.4-7.3-8.8-15-16-16.7-2.5-.6-21.9-1-48.5-1H17.9l-5.2 2.7zm135-1.4c-1.5.8-3.1 1.5-3.5 1.5-.4.1-2.2 1.5-3.9 3.1-3.5 3.1-5.6 6.6-6.8 11.4-.9 3.7-1.1 90.3-.1 91.2.3.4 1.3-.2 2-1.3.8-1 3-3.7 5-5.9s3.6-4.3 3.6-4.6c0-1.2 5.1-4.1 7.8-4.4 1.5-.2 4.2.6 6.1 1.6l3.4 2 3.4-3.8c2-2.2 3.2-4.5 2.9-5.5-.2-1 0-2.1.5-2.4.5-.3.6-1.1.2-1.7-1.1-1.7-1.1-2.9-.1-5 .6-1.1.5-1.7-.2-1.7-.6 0-.8-.5-.4-1.2.9-1.4.8-11.4-.1-12.8-.3-.6-.1-1 .5-1 .7 0 .7-.7-.1-2.3-.7-1.2-1.2-2.2-1.2-2.2s.5-1 1.2-2.3c.8-1.5.8-2.2.1-2.2-.8 0-.8-.6 0-2 .6-1.1.8-2.6.3-3.2-.9-1.6-.9-5 0-6.5.4-.6.3-1.5-.3-1.8-.8-.5-.8-1.1 0-2 .7-.8.7-1.6.2-1.9-.6-.3-.7-2.1-.2-4.1.4-1.9.4-3.7-.1-4-.4-.3-.4-1.7.1-3.1.7-1.7.7-2.3 0-1.9-.7.4-.7-.3 0-1.9.7-1.9.6-2.6-.3-2.6-.8 0-.9-.3-.1-.8.6-.4 1.3-1.5 1.7-2.5.3-.9 1.5-1.7 2.4-1.7 2.3 0 79.8 77.4 79.7 79.5-.1.8-.2 1.9-.3 2.3-.3 2.4-6.7 2.9-40.5 2.8l-35.9-.1-14.4 14.4c-12.5 12.6-14.2 14.6-12.6 15.5 1.2.7 18.5 1 48.8 1.1h47l4.7-2.8c5-2.9 9.8-8.3 9.8-11 0-1 .4-1.7 1-1.7s.9-17.3.7-48.3c-.2-39.3-.5-48.7-1.6-50-.7-1-1-1.7-.7-1.7.4 0-1.1-2-3.4-4.4-7.2-7.7-6.4-7.6-57.9-7.6-37.7 0-46.1.3-48.4 1.5zM15.6 134.7c-5.8 1.9-9.4 5-12.6 10.6l-3 5.2v93.3l2.6 4.7c2.5 4.7 5.6 7.8 10.2 10.2 3.6 1.9 98.4 1.7 102.1-.2 4.2-2.1 8.2-6.6 10.4-11.5 1.9-4.2 2-6.7 2.1-49.8.1-30.7-.2-45.7-1-46.2-.6-.6-2.4.9-4.9 4-2.2 2.8-4.3 5-4.7 5-.5 0-.8.5-.8 1 0 .6-1 2.1-2.2 3.4-1.3 1.2-3.4 3.8-4.8 5.6-1.4 1.8-3 3.8-3.5 4.4-.6.6-2.8 3.3-4.9 5.9-3.4 4.2-3.8 5-2.7 7 1.6 3.2 3 8.5 2.3 9.1-.3.3-.6 1.7-.8 3.1-.3 2.4-4.2 8.5-7.6 11.6-1 .9-1.8 2.1-1.8 2.7 0 .6-.3 1.2-.8 1.4-.4.1-4.6 5-9.2 10.8-4.7 5.8-8.9 11-9.5 11.6-.5.6-2.6 3.1-4.5 5.7-4.3 5.6-7.3 7.3-9.1 5-2.1-2.5-1.9-3.9 1.2-7.4 1.6-1.9 3.3-3.9 3.7-4.4.4-.6 2.9-3.7 5.6-7 2.6-3.3 6-7.5 7.4-9.4 1.5-1.8 3.2-3.8 3.8-4.5 3.4-3.6 3.9-7.6 1.1-7.6-1.4 0-2.3 1-9.8 10.6-3 3.8-5.6 7.1-5.9 7.4-.3.3-2.3 2.7-4.5 5.5-6.5 8.2-6.9 8.6-8.6 9.5-1.2.7-2.3.4-3.6-.8-2-1.7-1.9-3.6.1-5.9 1.3-1.4 1.9-2.2 6.6-8.3 1.9-2.5 3.7-4.7 4-5 .3-.3 3.2-3.9 6.5-8s6.6-8.1 7.3-8.8c1-1.1.9-1.6-.2-2.8-2.1-2-2.8-1.8-5.6 2-6.1 8.2-22.7 28.4-24.2 29.4-2.2 1.5-4.5.6-5.3-1.9-.6-1.9.8-4.4 6.1-10.6 1.1-1.2 2.6-3 3.4-4 .8-1 5.1-6.3 9.4-11.7 7.5-9.3 7.9-9.9 6.1-11.2-1.7-1.2-2.3-.9-6.1 3.4-2.4 2.6-4.3 5.2-4.4 5.9 0 .7-.6 1.6-1.3 2-.7.4-4 4.2-7.2 8.3-9 11.3-10.8 13-13.3 12.3-1.2-.3-2.3-.9-2.3-1.4-.1-.5-.2-1.5-.3-2.2-.1-.6.9-2.6 2.4-4.3 1.4-1.7 4.1-5 6-7.4 1.9-2.4 4.3-5.2 5.3-6.2.9-1 1.7-2 1.7-2.3 0-.5 3.1-4.4 6-7.5.8-.8 2.7-3.1 4.1-5 1.5-1.9 3.5-4.5 4.5-5.6 1.1-1.2 3-3.5 4.3-5.2 1.3-1.7 3.4-3.8 4.7-4.7 3.2-2.1 9.8-2.9 13.4-1.7 2.5.9 3.1.8 4.4-1.2.8-1.3 2.1-2.9 2.8-3.7.7-.8 3-3.5 5.1-6.1 2.1-2.6 4.3-5.3 5-6 .7-.7 3-3.6 5.2-6.3 2.2-2.8 5-6.1 6.3-7.5 3.6-3.8 4.4-5.7 3-6.7-.7-.4-21.6-.8-46.4-.8-34.1-.1-46.1.2-48.8 1.2zm136.4-.9c-.7.3-.7.8-.2 1.5 1.4 1.9 2.1 5.6 1.1 6.3-.5.3-.5 1 .1 1.7s2.4 3 4 5.2 3.3 4.4 3.8 5c.4.5 4.3 5.7 8.6 11.5 11.9 15.9 11.8 15.8 17.1 15 2.5-.4 4.8-.4 5.1-.1.3.3.9.6 1.2.6 1.5 0 12.2 5 12.2 5.7 0 .5.7.8 1.5.8s1.5.4 1.5 1c0 .5.4 1 1 1 2.6 0 15.3 16.1 16.5 21 .1.3.7 1.8 1.4 3.5.7 1.6 1.4 4.2 1.5 5.6.2 1.4.5 3 .8 3.5.6 1 .3 8.7-.5 12.1-1.1 4.4-3.9 8.4-7.8 11-3.4 2.2-5.4 2.7-11 2.9-3.8.1-7.2-.2-7.5-.7-.3-.5-1.3-.9-2.3-.9-2.3 0-12.7-6.7-17.1-11-5.8-5.7-11.7-15.3-14.2-23.4-1.6-5.1-1.8-15.5-.3-19.7 1.3-3.7 1.3-4-1-6.6-1.4-1.6-2.8-3.3-3.2-3.8-.8-1-17.6-21.4-21.6-26.3-1.2-1.4-3.6-4.2-5.3-6.1l-3.2-3.5-.8 4.3c-.5 2.3-.9 24.2-.8 48.4.1 44 .1 44.2 2.3 48.6 2.7 5.2 3.5 6.1 8.6 9.5l3.8 2.6h48.9c50.7-.1 50.4 0 55.2-4.2 1.1-1 2.4-1.8 3-1.8.5 0 .7-.3.3-.6-.3-.3.2-1.5 1.2-2.5 3.7-4 4-8.3 3.9-54.8l-.1-45.5-2.4-4.5c-3.4-6.5-7.9-10.3-13.6-11.8-2.4-.6-90-1-91.7-.5z"/></svg>