<svg xmlns="http://www.w3.org/2000/svg" width="148" height="31" viewBox="0 0 148 31"><path d="M4.522 10.856c1.027 0 1.87.352 2.53 1.056.66.704.991 1.566.991 2.586 0 .485-.092.928-.275 1.329-.183.4-.44.752-.77 1.056a3.66 3.66 0 01-2.476.965c-.979 0-1.81-.316-2.495-.947S1 15.469 1 14.498c0-1.02.33-1.882.99-2.586.66-.704 1.504-1.056 2.532-1.056zm0 11.884c1.027 0 1.87.352 2.53 1.056.66.704.991 1.565.991 2.585 0 .485-.092.928-.275 1.329-.183.4-.44.753-.77 1.056a3.66 3.66 0 01-2.476.965c-.979 0-1.81-.316-2.495-.947S1 27.352 1 26.381c0-1.02.33-1.881.99-2.585.66-.704 1.504-1.056 2.532-1.056zm28.946 2.24c-.01.269-.036.47-.078.6-.048.152-.156.377-.325.674-1.15 1.65-2.44 2.846-3.87 3.587-1.43.74-3.173 1.11-5.228 1.11-1.565 0-3.08-.26-4.548-.782a12.696 12.696 0 01-3.907-2.203 11.142 11.142 0 01-2.751-3.405c-.697-1.323-1.046-2.786-1.046-4.388 0-1.65.312-3.125.936-4.424a9.897 9.897 0 012.55-3.314c1.075-.91 2.329-1.602 3.76-2.075 1.43-.474 2.94-.674 4.53-.674 1.027 0 1.95.024 2.77.146.818.121 1.583.327 2.292.619.709.291 1.388.685 2.036 1.183.648.498 1.302 1.11 1.962 1.839.318.461.477.935.477 1.42 0 .68-.263 1.25-.789 1.712a2.672 2.672 0 01-1.815.691c-.636 0-1.284-.279-1.945-.837a43.923 43.923 0 01-.898-.765 8.008 8.008 0 00-1.009-.746 5.652 5.652 0 00-1.192-.565 4.483 4.483 0 00-1.45-.218c-.806 0-1.485.17-2.035.51-.55.34-.997.783-1.339 1.329a5.68 5.68 0 00-.734 1.875 10.501 10.501 0 00.019 4.37 5.89 5.89 0 00.788 1.948c.367.57.838 1.031 1.413 1.383.574.352 1.265.528 2.072.528.685 0 1.23-.036 1.633-.109a3.117 3.117 0 001.082-.4 4.51 4.51 0 00.935-.783 45.92 45.92 0 011.192-1.22c.563-.631 1.21-.947 1.945-.947.709 0 1.314.219 1.815.656.502.437.752.995.752 1.675zm14.197 5.975c-1.59.049-3.106-.123-4.55-.657a12.455 12.455 0 01-3.85-2.258 10.855 10.855 0 01-2.679-3.477c-.66-1.347-.99-2.81-.99-4.388 0-1.626.33-2.814.99-4.149a10.627 10.627 0 012.66-3.423c1.113-.946 2.396-1.68 3.852-2.203 1.455-.522 2.977-.717 4.567-.717 1.59 0 3.111.195 4.567.717 1.455.522 2.739 1.257 3.851 2.203 1.113.947 2 2.088 2.66 3.423.66 1.335.99 2.523.99 4.15 0 1.577-.33 3.04-.99 4.387a10.855 10.855 0 01-2.678 3.477 12.405 12.405 0 01-3.87 2.258c-1.455.534-2.965.706-4.53.657zm-.147-17.185c-1.272 0-2.268.576-2.99 1.73-.721 1.152-1.082 2.858-1.082 5.115 0 2.258.36 3.963 1.082 5.116.722 1.153 1.718 1.73 2.99 1.73 1.272 0 2.268-.577 2.99-1.73.72-1.153 1.082-2.858 1.082-5.116 0-1.408-.123-2.555-.367-3.44-.245-.887-.557-1.585-.936-2.095-.379-.51-.813-.855-1.302-1.037a4.18 4.18 0 00-1.467-.273zm29.877-4.094L77.388 0h8.07v28.334c0 .704-.263 1.317-.788 1.839-.526.522-1.144.783-1.853.783H71.74c-1.785 0-3.322-.1-4.57-.513-1.247-.413-2.235-1.247-3.005-2.073-.77-.825-1.327-2.438-1.67-3.663-.341-1.226-.513-2.653-.513-4.279-.049-1.99.19-3.807.814-5.142.623-1.335 1.552-2.83 2.69-3.62 1.137-.789 2.482-1.329 4.035-1.62 1.553-.291 3.235-.37 5.087-.37h2.788zM70.555 20.5c0 .836.097 1.596.22 2.385.122.789.294 1.568.6 2.175.305.607.616 1.33 1.358 1.908.742.578 1.38.783 2.334.783h2.604V13.687h-3.045c-.929 0-1.448.126-2.135.664-.687.538-1.022 1.274-1.291 1.869-.27.595-.425 1.3-.499 2.041-.073.74-.146 1.403-.146 2.24zm26.668-6.806v17.259h-8.07v-17.26c0-.533.11-1.043.33-1.529.22-.485.513-.91.88-1.274a4.285 4.285 0 011.284-.874 3.736 3.736 0 011.54-.328c.514 0 1.016.11 1.505.328.489.218.93.51 1.32.874.392.364.697.789.918 1.274.22.486.317.996.293 1.53zM96.489 3.64c0 .486-.091.929-.275 1.33-.183.4-.44.752-.77 1.055a3.66 3.66 0 01-2.476.965c-.978 0-1.81-.315-2.495-.946-.684-.632-1.027-1.433-1.027-2.404 0-1.02.33-1.881.99-2.585C91.098.352 91.942 0 92.969 0c1.027 0 1.87.352 2.53 1.056.661.704.991 1.566.991 2.585zm25.884 21.339c-.01.269-.037.47-.078.6-.048.152-.157.377-.326.674-1.15 1.65-2.44 2.846-3.87 3.587-1.43.74-3.173 1.11-5.227 1.11-1.565 0-3.082-.26-4.549-.782a12.696 12.696 0 01-3.907-2.203 11.142 11.142 0 01-2.75-3.405c-.698-1.323-1.046-2.786-1.046-4.388 0-1.65.311-3.125.935-4.424a9.897 9.897 0 012.55-3.314c1.076-.91 2.329-1.602 3.76-2.075 1.43-.474 2.94-.69 4.53-.69 1.027 0 1.95.04 2.77.162.819.121 1.583.327 2.292.619.71.291 1.388.685 2.036 1.183.648.498 1.302 1.11 1.962 1.839.318.461.477.935.477 1.42 0 .68-.263 1.25-.788 1.712a2.672 2.672 0 01-1.816.691c-.636 0-1.284-.279-1.944-.837a43.927 43.927 0 01-.9-.765 8.008 8.008 0 00-1.008-.746 5.652 5.652 0 00-1.192-.565 4.483 4.483 0 00-1.449-.218c-.807 0-1.486.17-2.036.51-.55.34-.996.783-1.339 1.329a5.68 5.68 0 00-.733 1.875 10.501 10.501 0 00.018 4.37 5.89 5.89 0 00.789 1.948c.366.57.837 1.031 1.412 1.383.575.352 1.265.528 2.072.528.685 0 1.23-.036 1.633-.109a3.117 3.117 0 001.082-.4 4.51 4.51 0 00.935-.783 45.92 45.92 0 011.193-1.22c.562-.631 1.21-.947 1.944-.947.709 0 1.314.219 1.816.656.5.437.752.995.752 1.675zM141.31 9.683c1.8 0 4.087-.044 5.086.25 1 .293 1.354 1.23 1.51 1.893.157.663.062 3.184.062 3.813V28.94c0 .41 0 .964-.407 1.397-.406.433-.665.617-2.106.617h-2.685c-.71-.038-.88-.159-1.058-.253-.177-.094-.731-.364-1.077-1.525-1.003 1.45-3.819 1.778-6.165 1.778-1.215 0-2.926-.178-4.338-.617s-2.352-1.057-3.051-1.696c-1.451-1.324-2.628-3.192-2.628-8.037 0-4.846 1.86-7.16 3.089-8.428 1.228-1.268 3.824-2.234 5.73-2.367 1.818-.127 2.656-.127 8.038-.127zm-8.845 10.818c-.025.752.098 1.596.22 2.385.122.789.336 1.487.642 2.094a3.709 3.709 0 001.339 1.474c.587.377 1.357.565 2.31.565h3.485V13.687h-3.924c-.93 0-1.492.294-2.104.759-.613.464-1.039 1.218-1.308 1.813a6.349 6.349 0 00-.513 2.002c-.074.74-.123 1.487-.147 2.24z" fill="#ED3E44" fill-rule="evenodd"/></svg>